# xmcd
#
# Track frame offsets: 
#        150
#        13837
#        26142
#        39185
#        53370
#        66665
#        79767
#        91865
#        104900
#        117322
#        129812
#        142685
#        156982
#        173025
#        186082
#        200925
#        214950
#        229620
#        244252
#        257207
#        271702
#        286377
#        300697
#        315020
#        326400
#        338507
#
# Disc length: 4659 seconds
#
# Revision: 0
# Processed by: cddbd v1.5.2PL0 Copyright (c) Steve Scherf et al.
# Submitted via: ExactAudioCopyFreeDBPlugin 1.0
#
DISCID=6a12311a
DTITLE=Various Artist - Male Blues of the Twenties Vol. 1 (1922-1930)
DYEAR=1996
DGENRE=Blues
TTITLE0=John P. Vigal - Fowler Twist
TTITLE1=Reese Du Pree - Long Ago Blues
TTITLE2=Reese Du Pree - O Saroo, Saroo
TTITLE3=Reese Du Pree - Norfolk Blues
TTITLE4=Reese Du Pree - One More Rounder Gone
TTITLE5=Billy Higgins - Levee Blues
TTITLE6=Billy Higgins - I'm Tired of Beggin' You to Treat Me Right
TTITLE7=Blind Richard Yates - I'm Gonna Moan My Blues Away
TTITLE8=Blind Richard Yates - Sore Bunion Blues
TTITLE9=Blind Richard Yates - Sore Bunion Blues
TTITLE10=Blind Richard Yates - I'm Gonna Moan My Blues Away
TTITLE11=Happy Holmes - Solid Ground
TTITLE12=Happy Holmes - When Folks Stop Talkin' and Walkin'
TTITLE13=James Crawford - Flood and Thunder Blues
TTITLE14=James Crawford - Unhappy Blues
TTITLE15="Sloppy" Henry - Hobo Blues
TTITLE16="Sloppy" Henry - The Best Cheap Car in the Market Is a Ford
TTITLE17="Sloppy" Henry - Jomo Man Blues
TTITLE18="Sloppy" Henry - Some Sweet Rainy Day
TTITLE19=Oliver Cobb - The Duck's Yas Yas Yas
TTITLE20=Oliver Cobb - Hot Stuff
TTITLE21=Oliver Cobb - Cornet Pleading Blues - Part 2
TTITLE22=Oliver Cobb - Cornet Pleading Blues - Part 1
TTITLE23=Willie Dukes - Snake Hip Twirl
TTITLE24=Willie Dukes - Homeward Bound
TTITLE25=Willie Dukes - Sweet Poplar Bluff Blues
EXTD=
EXTT0=
EXTT1=
EXTT2=
EXTT3=
EXTT4=
EXTT5=
EXTT6=
EXTT7=
EXTT8=
EXTT9=
EXTT10=
EXTT11=
EXTT12=
EXTT13=
EXTT14=
EXTT15=
EXTT16=
EXTT17=
EXTT18=
EXTT19=
EXTT20=
EXTT21=
EXTT22=
EXTT23=
EXTT24=
EXTT25=
PLAYORDER=
